<svg width="20" height="20" viewBox="0 0 20 20" fill="none" xmlns="http://www.w3.org/2000/svg">
<path d="M18.125 10C18.125 10.1658 18.0592 10.3247 17.9419 10.4419C17.8247 10.5592 17.6658 10.625 17.5 10.625H16.25V14.375C16.25 14.7065 16.1183 15.0245 15.8839 15.2589C15.6495 15.4933 15.3315 15.625 15 15.625H11.875C11.5435 15.625 11.2255 15.4933 10.9911 15.2589C10.7567 15.0245 10.625 14.7065 10.625 14.375V10.625H9.375V16.25C9.375 16.5815 9.2433 16.8995 9.00888 17.1339C8.77446 17.3683 8.45652 17.5 8.125 17.5H5C4.66848 17.5 4.35054 17.3683 4.11612 17.1339C3.8817 16.8995 3.75 16.5815 3.75 16.25V10.625H2.5C2.33424 10.625 2.17527 10.5592 2.05806 10.4419C1.94085 10.3247 1.875 10.1658 1.875 10C1.875 9.83424 1.94085 9.67527 2.05806 9.55806C2.17527 9.44085 2.33424 9.375 2.5 9.375H3.75V3.75C3.75 3.41848 3.8817 3.10054 4.11612 2.86612C4.35054 2.6317 4.66848 2.5 5 2.5H8.125C8.45652 2.5 8.77446 2.6317 9.00888 2.86612C9.2433 3.10054 9.375 3.41848 9.375 3.75V9.375H10.625V5.625C10.625 5.29348 10.7567 4.97554 10.9911 4.74112C11.2255 4.5067 11.5435 4.375 11.875 4.375H15C15.3315 4.375 15.6495 4.5067 15.8839 4.74112C16.1183 4.97554 16.25 5.29348 16.25 5.625V9.375H17.5C17.6658 9.375 17.8247 9.44085 17.9419 9.55806C18.0592 9.67527 18.125 9.83424 18.125 10Z" fill="#101828"/>
</svg>
