<svg width="20" height="20" viewBox="0 0 20 20" fill="none" xmlns="http://www.w3.org/2000/svg">
<path d="M17.5 8.125V5C17.5 4.66848 17.3683 4.35054 17.1339 4.11612C16.8995 3.8817 16.5815 3.75 16.25 3.75H10.625V2.5C10.625 2.33424 10.5592 2.17527 10.4419 2.05806C10.3247 1.94085 10.1658 1.875 10 1.875C9.83424 1.875 9.67527 1.94085 9.55806 2.05806C9.44085 2.17527 9.375 2.33424 9.375 2.5V3.75H3.75C3.41848 3.75 3.10054 3.8817 2.86612 4.11612C2.6317 4.35054 2.5 4.66848 2.5 5V8.125C2.5 8.45652 2.6317 8.77446 2.86612 9.00888C3.10054 9.2433 3.41848 9.375 3.75 9.375H9.375V10.625H5.625C5.29348 10.625 4.97554 10.7567 4.74112 10.9911C4.5067 11.2255 4.375 11.5435 4.375 11.875V15C4.375 15.3315 4.5067 15.6495 4.74112 15.8839C4.97554 16.1183 5.29348 16.25 5.625 16.25H9.375V17.5C9.375 17.6658 9.44085 17.8247 9.55806 17.9419C9.67527 18.0592 9.83424 18.125 10 18.125C10.1658 18.125 10.3247 18.0592 10.4419 17.9419C10.5592 17.8247 10.625 17.6658 10.625 17.5V16.25H14.375C14.7065 16.25 15.0245 16.1183 15.2589 15.8839C15.4933 15.6495 15.625 15.3315 15.625 15V11.875C15.625 11.5435 15.4933 11.2255 15.2589 10.9911C15.0245 10.7567 14.7065 10.625 14.375 10.625H10.625V9.375H16.25C16.5815 9.375 16.8995 9.2433 17.1339 9.00888C17.3683 8.77446 17.5 8.45652 17.5 8.125Z" fill="#101828"/>
</svg>
