<svg width="20" height="20" viewBox="0 0 20 20" fill="none" xmlns="http://www.w3.org/2000/svg">
<path d="M17.5 7.5V12.5C17.5 12.8315 17.3683 13.1495 17.1339 13.3839C16.8995 13.6183 16.5815 13.75 16.25 13.75H10.625V16.25C10.625 16.4158 10.5592 16.5747 10.4419 16.6919C10.3247 16.8092 10.1658 16.875 10 16.875C9.83424 16.875 9.67527 16.8092 9.55806 16.6919C9.44085 16.5747 9.375 16.4158 9.375 16.25V13.75H3.75C3.41848 13.75 3.10054 13.6183 2.86612 13.3839C2.6317 13.1495 2.5 12.8315 2.5 12.5V7.5C2.5 7.16848 2.6317 6.85054 2.86612 6.61612C3.10054 6.3817 3.41848 6.25 3.75 6.25H9.375V3.75C9.375 3.58424 9.44085 3.42527 9.55806 3.30806C9.67527 3.19085 9.83424 3.125 10 3.125C10.1658 3.125 10.3247 3.19085 10.4419 3.30806C10.5592 3.42527 10.625 3.58424 10.625 3.75V6.25H16.25C16.5815 6.25 16.8995 6.3817 17.1339 6.61612C17.3683 6.85054 17.5 7.16848 17.5 7.5Z" fill="#101828"/>
</svg>
