<svg width="20" height="20" viewBox="0 0 20 20" fill="none" xmlns="http://www.w3.org/2000/svg">
<path d="M16.875 10C16.875 10.1658 16.8092 10.3247 16.6919 10.4419C16.5747 10.5592 16.4158 10.625 16.25 10.625H13.75V16.25C13.75 16.5815 13.6183 16.8995 13.3839 17.1339C13.1495 17.3683 12.8315 17.5 12.5 17.5H7.5C7.16848 17.5 6.85054 17.3683 6.61612 17.1339C6.3817 16.8995 6.25 16.5815 6.25 16.25V10.625H3.75C3.58424 10.625 3.42527 10.5592 3.30806 10.4419C3.19085 10.3247 3.125 10.1658 3.125 10C3.125 9.83424 3.19085 9.67527 3.30806 9.55806C3.42527 9.44085 3.58424 9.375 3.75 9.375H6.25V3.75C6.25 3.41848 6.3817 3.10054 6.61612 2.86612C6.85054 2.6317 7.16848 2.5 7.5 2.5H12.5C12.8315 2.5 13.1495 2.6317 13.3839 2.86612C13.6183 3.10054 13.75 3.41848 13.75 3.75V9.375H16.25C16.4158 9.375 16.5747 9.44085 16.6919 9.55806C16.8092 9.67527 16.875 9.83424 16.875 10Z" fill="#101828"/>
</svg>
