<svg width="20" height="20" viewBox="0 0 20 20" fill="none" xmlns="http://www.w3.org/2000/svg">
<path d="M1.875 8.125V5C1.875 4.66848 2.0067 4.35054 2.24112 4.11612C2.47554 3.8817 2.79348 3.75 3.125 3.75H13.75C14.0815 3.75 14.3995 3.8817 14.6339 4.11612C14.8683 4.35054 15 4.66848 15 5V8.125C15 8.45652 14.8683 8.77446 14.6339 9.00888C14.3995 9.2433 14.0815 9.375 13.75 9.375H3.125C2.79348 9.375 2.47554 9.2433 2.24112 9.00888C2.0067 8.77446 1.875 8.45652 1.875 8.125ZM16.875 17.5C17.0408 17.5 17.1997 17.4342 17.3169 17.3169C17.4342 17.1997 17.5 17.0408 17.5 16.875V3.125C17.5 2.95924 17.4342 2.80027 17.3169 2.68306C17.1997 2.56585 17.0408 2.5 16.875 2.5C16.7092 2.5 16.5503 2.56585 16.4331 2.68306C16.3158 2.80027 16.25 2.95924 16.25 3.125V16.875C16.25 17.0408 16.3158 17.1997 16.4331 17.3169C16.5503 17.4342 16.7092 17.5 16.875 17.5ZM13.75 10.625H6.25C5.91848 10.625 5.60054 10.7567 5.36612 10.9911C5.1317 11.2255 5 11.5435 5 11.875V15C5 15.3315 5.1317 15.6495 5.36612 15.8839C5.60054 16.1183 5.91848 16.25 6.25 16.25H13.75C14.0815 16.25 14.3995 16.1183 14.6339 15.8839C14.8683 15.6495 15 15.3315 15 15V11.875C15 11.5435 14.8683 11.2255 14.6339 10.9911C14.3995 10.7567 14.0815 10.625 13.75 10.625Z" fill="#101828"/>
</svg>
