<svg width="20" height="20" viewBox="0 0 20 20" fill="none" xmlns="http://www.w3.org/2000/svg">
<path d="M17.5 16.875C17.5 17.0408 17.4342 17.1997 17.3169 17.3169C17.1997 17.4342 17.0408 17.5 16.875 17.5H3.125C2.95924 17.5 2.80027 17.4342 2.68306 17.3169C2.56585 17.1997 2.5 17.0408 2.5 16.875C2.5 16.7092 2.56585 16.5503 2.68306 16.4331C2.80027 16.3158 2.95924 16.25 3.125 16.25H16.875C17.0408 16.25 17.1997 16.3158 17.3169 16.4331C17.4342 16.5503 17.5 16.7092 17.5 16.875ZM11.875 15H15C15.3315 15 15.6495 14.8683 15.8839 14.6339C16.1183 14.3995 16.25 14.0815 16.25 13.75V6.25C16.25 5.91848 16.1183 5.60054 15.8839 5.36612C15.6495 5.1317 15.3315 5 15 5H11.875C11.5435 5 11.2255 5.1317 10.9911 5.36612C10.7567 5.60054 10.625 5.91848 10.625 6.25V13.75C10.625 14.0815 10.7567 14.3995 10.9911 14.6339C11.2255 14.8683 11.5435 15 11.875 15ZM5 15H8.125C8.45652 15 8.77446 14.8683 9.00888 14.6339C9.2433 14.3995 9.375 14.0815 9.375 13.75V3.125C9.375 2.79348 9.2433 2.47554 9.00888 2.24112C8.77446 2.0067 8.45652 1.875 8.125 1.875H5C4.66848 1.875 4.35054 2.0067 4.11612 2.24112C3.8817 2.47554 3.75 2.79348 3.75 3.125V13.75C3.75 14.0815 3.8817 14.3995 4.11612 14.6339C4.35054 14.8683 4.66848 15 5 15Z" fill="#101828"/>
</svg>
