<svg width="12" height="13" viewBox="0 0 12 13" fill="none" xmlns="http://www.w3.org/2000/svg">
<path d="M2.49476 3C2.00917 3 1.76638 3 1.63255 3.10125C1.51595 3.18945 1.4438 3.32426 1.43509 3.4702C1.42509 3.63772 1.55976 3.83973 1.82912 4.24376L5.3343 9.50154C5.55686 9.83538 5.66815 10.0023 5.80841 10.0605C5.93103 10.1113 6.06885 10.1113 6.19148 10.0605C6.33174 10.0023 6.44302 9.83538 6.66558 9.50154L10.1708 4.24376C10.4401 3.83973 10.5748 3.63772 10.5648 3.4702C10.5561 3.32426 10.4839 3.18945 10.3673 3.10125C10.2335 3 9.99071 3 9.50513 3L2.49476 3Z" fill="#101828"/>
</svg>
