<svg width="12" height="13" viewBox="0 0 12 13" fill="none" xmlns="http://www.w3.org/2000/svg">
<path d="M2.5 2.99482C2.5 2.50924 2.5 2.26644 2.60125 2.13261C2.68945 2.01601 2.82426 1.94386 2.9702 1.93515C3.13772 1.92515 3.33973 2.05982 3.74376 2.32918L9.00154 5.83436C9.33538 6.05693 9.5023 6.16821 9.56047 6.30847C9.61133 6.4311 9.61133 6.56891 9.56047 6.69154C9.5023 6.8318 9.33538 6.94308 9.00154 7.16564L3.74376 10.6708C3.33973 10.9402 3.13772 11.0749 2.9702 11.0649C2.82426 11.0561 2.68945 10.984 2.60125 10.8674C2.5 10.7336 2.5 10.4908 2.5 10.0052V2.99482Z" fill="#101828"/>
</svg>
